<?xml version="1.0" encoding="utf-8"?>
<svg version="1.1" id="Layer_1" xmlns="http://www.w3.org/2000/svg" xmlns:xlink="http://www.w3.org/1999/xlink" x="0px" y="0px" viewBox="0 0 566.9 566.9" style="enable-background:new 0 0 566.9 566.9;" xml:space="preserve">
	<style type="text/css">
		.st0 {
			fill: none;
		}

		.st1 {
			fill: #696969;
		}

	</style>
	<g>
		<path class="st0" d="M283.5,284.4c3.3-4.7,7.9-8.2,13.3-10.1c-4.5-15.3-13.5-35-17.9-33.2c-2.1,0.9-6.5,17.9-9.1,33
		C275.2,276,280.1,279.6,283.5,284.4z" />
		<path class="st0" d="M331.3,246.5c23.1,0,30.7-24.2,30.7-39.6c0-15.3-8.3-39.3-25.2-39.3c-14.3,0-37.7,5.6-37.7,28.3
		C299.1,245.1,313.2,246.5,331.3,246.5z" />
		<path class="st0" d="M234.5,252.6c18.4,0,38.2-35.6,38.2-52.4c0-24.4-29-28-46-28c-12.6,0-21.8,11.8-21.8,36.4
		C204.9,233.1,216.1,252.6,234.5,252.6z" />
		<path class="st1" d="M182,226.3c0,8.9-2.5,13.5-4.9,17.8c-2.1,3.8-4.3,7.7-4.3,13.9c0,4.2,1.6,18.1,18.9,24.8
		c11.8,4.6,19.6,10.4,24.7,16.4c0.8-0.5,1.7-1.1,2.6-1.7c3.1-2.3,6-4.7,9-7.4c1.8-1.5,3.6-3.1,5.4-4.6c5.3-4.3,9.6-7.1,14.1-9
		l1.2-0.5c3.9-1.7,7.6-3.3,12.6-3.2c2.9,0,5.6,0.5,8.3,1.5c2.6-15.1,7-32.1,9.1-33c4.4-1.8,13.4,17.9,17.9,33.2
		c2.8-1,5.8-1.6,8.8-1.6c5.1-0.1,8.7,1.5,12.6,3.2l1.2,0.5c4.5,1.9,8.8,4.7,14.1,9c1.8,1.5,3.7,3.1,5.4,4.6c3.1,2.6,5.9,5.1,9,7.4
		c0.7,0.5,1.4,1,2.1,1.4c4.7-6,11.8-11.7,22.8-15.4c19.4-6.6,21.3-20.9,21.3-25.5c0-6.8-2.2-10.7-4.4-14.6c-2.3-4.1-4.8-8.4-4.8-17
		c0-7.7,3-13.7,6.9-21.4c5.9-11.9,13.3-26.7,13.3-54.9c0-66.7-54.7-121-121.9-121c-67,0-121.5,54.3-121.5,121
		c0,26.6,7.3,41.9,13.3,54.2C178.9,212.3,182,218.7,182,226.3z M336.8,167.7c16.9,0,25.2,24,25.2,39.3c0,15.4-7.6,39.6-30.7,39.6
		c-18.1,0-32.2-1.5-32.2-50.6C299.1,173.3,322.5,167.7,336.8,167.7z M226.7,172.1c17,0,46,3.6,46,28c0,16.8-19.8,52.4-38.2,52.4
		c-18.4,0-29.6-19.5-29.6-44.1C204.9,183.9,214.1,172.1,226.7,172.1z" />
		<path class="st1" d="M292.5,324.8c-3.4-2.8-5.9-5.3-8-8c-0.3-0.4-0.7-0.9-1-1.3c-0.3,0.5-0.6,0.9-1,1.3c-2.1,2.7-4.7,5.2-8,8
		c-2.9,2.3-6,4.4-9.2,6.3c-4.3,2.4-8.8,4.4-13.6,6c9.2,1.8,20.2,3.1,31.9,3.1c11.7,0,22.7-1.4,31.8-3.1c-4.8-1.6-9.4-3.6-13.7-6
		C298.5,329.2,295.4,327.1,292.5,324.8z" />
		<path class="st1" d="M500.4,483.8c-2.2,2.4-4.6,4.7-6.7,7.1c-3.9,4.2-6.4,9.4-7.1,15.3c-0.4-2.9-0.2-6,0.5-9c0.8-3,2.3-5.8,4-8.3
		c3.4-5.1,7.4-9.3,10.2-14.2c0.9-1.5,1.7-3.1,2.4-4.7c0.3-1.3,0.5-2.6,0.5-4.1c0.1-1.3-0.1-2.9-0.3-4.4c-0.4-2.9-1.3-5.9-2.7-8.6
		c-2.9-5.5-8.3-9.6-14.1-11.2c-5.9-1.7-11.7-1.7-17.5-0.9c-2.9,0.5-5.8,1.2-8.6,2.4c-2.7,1.2-5.4,2.9-7.5,5.1
		c-2.2,2.1-3.9,4.7-5.1,7.5c-0.8,1.9-1.3,3.8-1.7,5.9c-7.7-1.9-15.5-4.6-23.2-7.2c-8.6-3-17.2-6.1-25.7-9.3c-17-6.4-34.1-13.1-51-20
		c-6.2-2.5-12.4-5.1-18.6-7.6c12.3-4.9,24.5-9.8,36.9-14.5c8.6-3.3,17.1-6.5,25.8-9.6c7.9-2.8,15.8-5.6,23.8-7.8
		c1.6,4.6,4.1,8.6,7.7,12c4.1,4,9.7,6.5,15.4,7.2c5.6,0.7,11.2,0.3,16.6-1.6c5.4-1.8,10.4-5.4,13.6-10.2c1.6-2.4,2.8-5,3.6-7.8
		c0.4-1.4,0.6-2.8,0.7-4.4c0-1.2,0-2.4-0.2-3.7c-0.8-2.1-1.7-4.2-2.7-6.3c-1.3-2.5-2.8-4.9-4.5-7.3c0,0,0,0,0,0l0,0
		c-2.2-3.2-4.6-6.3-6.9-9.8c-1.9-3-3.6-6.4-4.4-10c-0.9-3.5-0.9-7.2-0.4-10.6c0.5,3.5,1.4,6.8,2.7,9.9c1.4,3.1,3.2,5.8,5.3,8.4
		c2,2.5,4.3,5,6.4,7.6c1-1.8,1.8-3.6,2.5-5.5c0.8-2.3,1.3-4.7,1.5-7.3c0.1-2.4,0-4.8-0.4-7.2c-0.7-4.7-2.2-9.5-4.7-13.7
		c-2.5-4.2-6-8-10.2-10.6c-4.2-2.6-9-4.2-13.8-4.9c-2.4-0.4-4.8-0.5-7.2-0.5c-2.4,0-4.8,0.2-7.2,0.5c-4.8,0.8-9.6,2.4-13.7,5.1
		c-4.2,2.7-7.7,6.5-9.9,10.9c-1.2,2.2-2.1,4.5-2.6,6.9c-0.6,2.4-0.7,5-0.7,7.3c0,1.1,0,2.2-0.1,3c-0.2,0.9-0.2,0.8-0.7,1.4
		c-0.6,0.5-1.7,1.2-2.6,1.7c-0.9,0.6-1.9,1.1-2.9,1.7c-7.8,4.4-16.1,8.3-24.3,12.2c-16.5,7.8-33.2,15.2-49.9,22.6
		c-12.4,5.4-24.9,10.8-37.4,16.1c-12.5-5.3-25-10.7-37.4-16.1c-16.7-7.4-33.4-14.8-49.8-22.6c-8.2-3.9-16.5-7.8-24.3-12.2
		c-1-0.6-1.9-1.1-2.9-1.7c-0.9-0.5-1.9-1.2-2.5-1.7c-0.6-0.5-0.6-0.5-0.8-1.4c-0.2-0.8-0.2-2-0.2-3c0-2.3-0.1-4.9-0.7-7.3
		c-0.5-2.4-1.5-4.7-2.6-6.9c-2.3-4.4-5.8-8.2-9.9-10.9c-4.2-2.7-8.9-4.3-13.7-5.1c-2.4-0.4-4.8-0.5-7.2-0.5c-2.3,0-4.8,0.2-7.2,0.5
		c-4.7,0.7-9.5,2.2-13.7,4.9c-4.2,2.6-7.8,6.3-10.2,10.6c-2.5,4.2-3.9,9-4.7,13.7c-0.3,2.4-0.5,4.8-0.4,7.2c0.2,2.7,0.7,5,1.5,7.3
		c0.6,1.9,1.5,3.8,2.4,5.5c2.2-2.7,4.4-5.2,6.4-7.7c2.1-2.6,4-5.3,5.3-8.4c1.4-3,2.3-6.4,2.8-9.8c0.5,3.5,0.5,7.1-0.3,10.7
		c-0.8,3.6-2.5,6.9-4.4,10c-4,6-8.4,11.1-11.4,17.1c-1.1,2.1-2,4.3-2.8,6.5c-0.2,1.1-0.2,2.3-0.2,3.4c0.1,1.7,0.3,3,0.8,4.4
		c0.7,2.8,2,5.4,3.6,7.8c3.2,4.8,8.2,8.4,13.6,10.2c5.4,1.9,11.1,2.2,16.7,1.6c5.7-0.7,11.2-3.2,15.3-7.2c3.6-3.4,6.1-7.4,7.7-12
		c8,2.2,15.9,5,23.8,7.8c8.7,3,17.2,6.3,25.8,9.6c12.3,4.7,24.6,9.6,36.8,14.5c-6.2,2.5-12.4,5.1-18.6,7.6
		c-16.9,6.8-33.9,13.5-51,20c-8.5,3.2-17.1,6.4-25.7,9.3c-7.7,2.6-15.5,5.3-23.3,7.2c-0.3-2-0.8-4-1.7-5.9c-1.2-2.7-2.9-5.3-5.1-7.5
		c-2.1-2.2-4.8-3.9-7.5-5.1c-2.8-1.2-5.7-1.9-8.6-2.4c-5.8-0.7-11.6-0.7-17.4,0.9c-5.8,1.6-11.3,5.7-14.1,11.2
		c-1.5,2.7-2.4,5.7-2.7,8.6c-0.2,1.5-0.3,3.1-0.3,4.4c0,1.2,0.2,2.3,0.4,3.4c0.8,1.8,1.7,3.6,2.7,5.3c2.8,4.8,6.9,9,10.4,14.1
		c1.7,2.5,3.2,5.4,3.9,8.4c0.8,3,0.8,6.2,0.3,9.1c-0.9-6-3.5-11-7.4-15.1c-2.1-2.3-4.3-4.6-6.5-7c-3.1,6.5-4.6,13.9-4,21.1
		c0.7,9.6,5,19.3,12.8,25.5c3.9,3.1,8.5,5.2,13.4,6.3c4.8,1.1,9.7,1.3,14.6,0.5c4.9-0.8,9.7-2.8,13.6-5.9c3.9-3.1,7-7.1,9-11.6
		c1-2.3,1.9-4.6,2.3-7c0.5-2.4,0.7-5,0.6-7.3v-1.3c0.2-0.1,0.6-0.3,1-0.5l1.6-0.8c2-1,4-2.1,6.1-3c8.2-4,16.6-7.7,24.9-11.6
		c16.7-7.5,33.5-14.9,50.4-22.2c23.6-10.2,47.2-20.2,70.8-30.1c23.7,9.9,47.3,19.9,70.8,30.1c16.8,7.3,33.6,14.7,50.4,22.2
		c8.3,3.8,16.7,7.6,24.9,11.6c2.1,1,4.1,2,6.1,3l1.6,0.8c0.3,0.2,0.7,0.4,1,0.5v1.3c0,2.3,0.1,4.9,0.6,7.3c0.5,2.4,1.3,4.7,2.3,7
		c2,4.5,5.1,8.5,9.1,11.6c3.9,3.1,8.7,5.1,13.6,5.9c5,0.8,9.8,0.6,14.7-0.5c4.8-1.1,9.4-3.2,13.3-6.3c7.8-6.3,12.1-16,12.8-25.5
		C505.1,497.8,503.6,490.4,500.4,483.8z" />
		<path class="st1" d="M334.2,295.4c-1.7-1.5-3.5-3-5.2-4.4c-4.7-3.9-8.5-6.3-12.4-8l-1.3-0.5c-3.4-1.5-6.2-2.7-9.6-2.6
		c-7.4,0.1-14.4,4.5-17.7,11.1c-0.4,0.8-0.8,1.7-1.1,2.6l-2.1,6.4l2.1,6.4c0.7,2.2,1.8,4.2,3.3,6.1c1.8,2.3,4,4.4,6.9,6.9
		c2.5,2.1,5.3,4,8.2,5.6c15,8.5,34,11.2,52.2,7.5c7.6-1.6,14.1-4.2,19.4-7.6c6-3.9,10.5-9.3,12.9-15.1c2.5-6.2,2.5-13.3,0-18.9
		c-0.4-0.9-0.9-1.8-1.5-2.6c1.5,6.4-0.4,13.1-5.1,17.6c-5.1,4.9-12.8,7.1-20.7,5.9c-6.1-0.9-12.2-3.6-18.7-8.3
		C340.3,300.8,337.2,298.1,334.2,295.4z" />
		<path class="st1" d="M279,291c-3.3-6.6-10.3-11-17.7-11.1c-3.5,0-6.2,1.1-9.6,2.6l-1.3,0.5c-3.8,1.6-7.6,4.1-12.4,8
		c-1.8,1.4-3.5,3-5.2,4.4c-3,2.6-6.2,5.3-9.5,7.8c-6.5,4.7-12.6,7.5-18.7,8.3c-7.9,1.2-15.6-1.1-20.7-5.9
		c-4.7-4.5-6.6-11.2-5.1-17.6c-0.6,0.8-1.1,1.7-1.5,2.6c-2.6,5.6-2.6,12.6,0,18.9c2.4,5.8,7,11.2,12.9,15.1
		c5.3,3.5,11.8,6.1,19.4,7.6c18.2,3.8,37.2,1.1,52.2-7.5c2.9-1.6,5.6-3.5,8.2-5.6c2.9-2.4,5.1-4.6,6.9-6.8c1.4-1.8,2.5-3.8,3.2-6
		l2.1-6.4l-2.1-6.3C279.7,292.7,279.4,291.8,279,291z" />
	</g>
</svg>
